<svg width="1440" height="60" viewBox="0 0 1440 60" fill="none" xmlns="http://www.w3.org/2000/svg">
<rect width="1440" height="60" transform="matrix(-1 0 0 1 1440 0)" fill="#38ED0A"/>
<path d="M590.186 34V19.4545H595.733C596.846 19.4545 597.783 19.6487 598.546 20.0369C599.313 20.4252 599.895 20.9721 600.293 21.6776C600.691 22.3783 600.89 23.1998 600.89 24.142C600.89 25.0843 600.688 25.8987 600.286 26.5852C599.883 27.2718 599.294 27.8021 598.517 28.1761C597.746 28.5455 596.801 28.7301 595.684 28.7301H591.813V26.4503H595.286C595.916 26.4503 596.434 26.3627 596.841 26.1875C597.248 26.0123 597.551 25.7543 597.75 25.4134C597.949 25.0677 598.049 24.6439 598.049 24.142C598.049 23.6354 597.949 23.2045 597.75 22.8494C597.551 22.4943 597.246 22.2244 596.834 22.0398C596.427 21.8504 595.906 21.7557 595.272 21.7557H592.963V34H590.186ZM597.814 27.402L601.415 34H598.333L594.796 27.402H597.814ZM607.837 34.2131C606.734 34.2131 605.785 33.9858 604.989 33.5312C604.194 33.072 603.581 32.4233 603.15 31.5852C602.719 30.7424 602.504 29.7481 602.504 28.6023C602.504 27.4801 602.719 26.4953 603.15 25.6477C603.581 24.8002 604.184 24.1397 604.961 23.6662C605.742 23.188 606.658 22.9489 607.71 22.9489C608.396 22.9489 609.042 23.0601 609.648 23.2827C610.254 23.5005 610.79 23.8366 611.254 24.2912C611.718 24.741 612.08 25.3139 612.34 26.0099C612.605 26.7012 612.738 27.5204 612.738 28.4673V29.2699H603.711V27.4943H610.153C610.148 27.0208 610.044 26.5994 609.84 26.2301C609.641 25.8561 609.362 25.5649 609.002 25.3565C608.642 25.1435 608.226 25.0369 607.752 25.0369C607.246 25.0369 606.8 25.1577 606.417 25.3991C606.033 25.6359 605.735 25.9508 605.522 26.3438C605.309 26.732 605.2 27.1605 605.195 27.6293V29.2273C605.195 29.8333 605.307 30.3542 605.529 30.7898C605.752 31.2206 606.062 31.5521 606.46 31.7841C606.862 32.0114 607.335 32.125 607.88 32.125C608.24 32.125 608.567 32.0753 608.86 31.9759C609.158 31.8717 609.414 31.7202 609.627 31.5213C609.845 31.3177 610.008 31.0668 610.117 30.7685L612.646 31.0099C612.499 31.6539 612.21 32.2173 611.779 32.7003C611.353 33.1785 610.806 33.5502 610.138 33.8153C609.471 34.0805 608.704 34.2131 607.837 34.2131ZM617.312 30.669V27.3949H617.731L621.509 23.0909H624.67L619.883 28.4957H619.293L617.312 30.669ZM614.84 34V19.4545H617.553V34H614.84ZM621.68 34L618.235 29.1065L620.06 27.1889L624.904 34H621.68ZM629.018 19.4545V34H626.305V19.4545H629.018ZM634.73 34.2131C634.034 34.2131 633.411 34.09 632.862 33.8438C632.313 33.5975 631.88 33.233 631.562 32.75C631.245 32.2623 631.087 31.661 631.087 30.946C631.087 30.3305 631.198 29.8215 631.42 29.419C631.648 29.0118 631.955 28.6875 632.344 28.446C632.737 28.1998 633.179 28.0152 633.672 27.892C634.164 27.7642 634.678 27.6719 635.213 27.6151C635.852 27.5488 636.368 27.4872 636.761 27.4304C637.154 27.3736 637.441 27.2884 637.621 27.1747C637.801 27.0563 637.891 26.8764 637.891 26.6349V26.5923C637.891 26.081 637.737 25.688 637.429 25.4134C637.126 25.134 636.69 24.9943 636.122 24.9943C635.516 24.9943 635.036 25.1269 634.68 25.392C634.33 25.6525 634.096 25.9673 633.977 26.3366L631.449 26.0312C631.624 25.3684 631.925 24.8073 632.351 24.348C632.782 23.8887 633.317 23.5407 633.956 23.304C634.6 23.0672 635.32 22.9489 636.115 22.9489C636.664 22.9489 637.204 23.0128 637.734 23.1406C638.269 23.2685 638.752 23.4768 639.183 23.7656C639.619 24.0545 639.964 24.438 640.22 24.9162C640.481 25.3944 640.611 25.9815 640.611 26.6776V34H638.011V32.4943H637.926C637.765 32.8116 637.54 33.1004 637.251 33.3608C636.967 33.6212 636.615 33.8295 636.193 33.9858C635.777 34.1373 635.289 34.2131 634.73 34.2131ZM635.455 32.2599C635.952 32.2599 636.383 32.1629 636.747 31.9688C637.116 31.7699 637.401 31.5071 637.599 31.1804C637.803 30.8537 637.905 30.4915 637.905 30.0938V28.8438C637.82 28.91 637.685 28.9716 637.5 29.0284C637.32 29.0805 637.116 29.1278 636.889 29.1705C636.662 29.2131 636.437 29.2509 636.214 29.2841C635.992 29.3172 635.795 29.3456 635.625 29.3693C635.251 29.4214 634.92 29.5066 634.631 29.625C634.342 29.7386 634.115 29.8973 633.949 30.1009C633.783 30.3045 633.7 30.5649 633.7 30.8821C633.7 31.3366 633.864 31.6799 634.19 31.9119C634.522 32.1439 634.943 32.2599 635.455 32.2599ZM643.121 34V23.0909H645.714V24.9659H645.842C646.069 24.3362 646.445 23.8437 646.971 23.4886C647.501 23.1288 648.131 22.9489 648.86 22.9489C649.603 22.9489 650.231 23.1312 650.742 23.4957C651.258 23.8556 651.616 24.3456 651.815 24.9659H651.928C652.165 24.3551 652.572 23.8674 653.15 23.5028C653.728 23.1335 654.414 22.9489 655.21 22.9489C656.218 22.9489 657.04 23.2685 657.674 23.9077C658.308 24.5469 658.626 25.4678 658.626 26.6705V34H655.906V27.1321C655.906 26.4787 655.73 25.9981 655.38 25.6903C655.034 25.3778 654.608 25.2216 654.102 25.2216C653.5 25.2216 653.031 25.4086 652.695 25.7827C652.364 26.1567 652.198 26.642 652.198 27.2386V34H649.542V27.0398C649.542 26.4858 649.379 26.0455 649.052 25.7188C648.725 25.3873 648.297 25.2216 647.766 25.2216C647.411 25.2216 647.087 25.3116 646.793 25.4915C646.5 25.6714 646.265 25.9247 646.09 26.2514C645.92 26.5781 645.835 26.9593 645.835 27.3949V34H643.121ZM664.3 34.2131C663.604 34.2131 662.982 34.09 662.433 33.8438C661.883 33.5975 661.45 33.233 661.133 32.75C660.816 32.2623 660.657 31.661 660.657 30.946C660.657 30.3305 660.768 29.8215 660.991 29.419C661.218 29.0118 661.526 28.6875 661.914 28.446C662.307 28.1998 662.75 28.0152 663.242 27.892C663.735 27.7642 664.248 27.6719 664.783 27.6151C665.423 27.5488 665.939 27.4872 666.332 27.4304C666.725 27.3736 667.011 27.2884 667.191 27.1747C667.371 27.0563 667.461 26.8764 667.461 26.6349V26.5923C667.461 26.081 667.307 25.688 666.999 25.4134C666.696 25.134 666.261 24.9943 665.692 24.9943C665.086 24.9943 664.606 25.1269 664.251 25.392C663.9 25.6525 663.666 25.9673 663.548 26.3366L661.019 26.0312C661.194 25.3684 661.495 24.8073 661.921 24.348C662.352 23.8887 662.887 23.5407 663.526 23.304C664.17 23.0672 664.89 22.9489 665.685 22.9489C666.235 22.9489 666.774 23.0128 667.305 23.1406C667.84 23.2685 668.323 23.4768 668.754 23.7656C669.189 24.0545 669.535 24.438 669.79 24.9162C670.051 25.3944 670.181 25.9815 670.181 26.6776V34H667.582V32.4943H667.496C667.335 32.8116 667.111 33.1004 666.822 33.3608C666.538 33.6212 666.185 33.8295 665.763 33.9858C665.347 34.1373 664.859 34.2131 664.3 34.2131ZM665.025 32.2599C665.522 32.2599 665.953 32.1629 666.317 31.9688C666.687 31.7699 666.971 31.5071 667.17 31.1804C667.373 30.8537 667.475 30.4915 667.475 30.0938V28.8438C667.39 28.91 667.255 28.9716 667.07 29.0284C666.89 29.0805 666.687 29.1278 666.46 29.1705C666.232 29.2131 666.007 29.2509 665.785 29.2841C665.562 29.3172 665.366 29.3456 665.195 29.3693C664.821 29.4214 664.49 29.5066 664.201 29.625C663.912 29.7386 663.685 29.8973 663.519 30.1009C663.353 30.3045 663.271 30.5649 663.271 30.8821C663.271 31.3366 663.434 31.6799 663.761 31.9119C664.092 32.1439 664.513 32.2599 665.025 32.2599ZM682.511 34V19.4545H688.058C689.17 19.4545 690.108 19.6487 690.87 20.0369C691.637 20.4252 692.219 20.9721 692.617 21.6776C693.015 22.3783 693.214 23.1998 693.214 24.142C693.214 25.0843 693.013 25.8987 692.61 26.5852C692.208 27.2718 691.618 27.8021 690.842 28.1761C690.07 28.5455 689.125 28.7301 688.008 28.7301H684.137V26.4503H687.61C688.24 26.4503 688.758 26.3627 689.165 26.1875C689.573 26.0123 689.876 25.7543 690.075 25.4134C690.273 25.0677 690.373 24.6439 690.373 24.142C690.373 23.6354 690.273 23.2045 690.075 22.8494C689.876 22.4943 689.57 22.2244 689.158 22.0398C688.751 21.8504 688.23 21.7557 687.596 21.7557H685.288V34H682.511ZM690.138 27.402L693.739 34H690.657L687.12 27.402H690.138ZM700.162 34.2131C699.058 34.2131 698.109 33.9858 697.314 33.5312C696.518 33.072 695.905 32.4233 695.474 31.5852C695.043 30.7424 694.828 29.7481 694.828 28.6023C694.828 27.4801 695.043 26.4953 695.474 25.6477C695.905 24.8002 696.509 24.1397 697.285 23.6662C698.066 23.188 698.983 22.9489 700.034 22.9489C700.72 22.9489 701.367 23.0601 701.973 23.2827C702.579 23.5005 703.114 23.8366 703.578 24.2912C704.042 24.741 704.404 25.3139 704.664 26.0099C704.93 26.7012 705.062 27.5204 705.062 28.4673V29.2699H696.035V27.4943H702.477C702.472 27.0208 702.368 26.5994 702.164 26.2301C701.966 25.8561 701.686 25.5649 701.326 25.3565C700.967 25.1435 700.55 25.0369 700.076 25.0369C699.57 25.0369 699.125 25.1577 698.741 25.3991C698.358 25.6359 698.059 25.9508 697.846 26.3438C697.633 26.732 697.524 27.1605 697.52 27.6293V29.2273C697.52 29.8333 697.631 30.3542 697.853 30.7898C698.076 31.2206 698.386 31.5521 698.784 31.7841C699.186 32.0114 699.66 32.125 700.204 32.125C700.564 32.125 700.891 32.0753 701.184 31.9759C701.483 31.8717 701.738 31.7202 701.951 31.5213C702.169 31.3177 702.333 31.0668 702.441 30.7685L704.97 31.0099C704.823 31.6539 704.534 32.2173 704.103 32.7003C703.677 33.1785 703.13 33.5502 702.463 33.8153C701.795 34.0805 701.028 34.2131 700.162 34.2131ZM709.636 30.669V27.3949H710.055L713.833 23.0909H716.994L712.207 28.4957H711.618L709.636 30.669ZM707.164 34V19.4545H709.877V34H707.164ZM714.004 34L710.559 29.1065L712.385 27.1889L717.228 34H714.004ZM721.342 19.4545V34H718.629V19.4545H721.342ZM727.054 34.2131C726.358 34.2131 725.736 34.09 725.186 33.8438C724.637 33.5975 724.204 33.233 723.887 32.75C723.569 32.2623 723.411 31.661 723.411 30.946C723.411 30.3305 723.522 29.8215 723.745 29.419C723.972 29.0118 724.28 28.6875 724.668 28.446C725.061 28.1998 725.504 28.0152 725.996 27.892C726.489 27.7642 727.002 27.6719 727.537 27.6151C728.176 27.5488 728.693 27.4872 729.086 27.4304C729.479 27.3736 729.765 27.2884 729.945 27.1747C730.125 27.0563 730.215 26.8764 730.215 26.6349V26.5923C730.215 26.081 730.061 25.688 729.753 25.4134C729.45 25.134 729.015 24.9943 728.446 24.9943C727.84 24.9943 727.36 25.1269 727.005 25.392C726.654 25.6525 726.42 25.9673 726.301 26.3366L723.773 26.0312C723.948 25.3684 724.249 24.8073 724.675 24.348C725.106 23.8887 725.641 23.5407 726.28 23.304C726.924 23.0672 727.644 22.9489 728.439 22.9489C728.989 22.9489 729.528 23.0128 730.059 23.1406C730.594 23.2685 731.077 23.4768 731.507 23.7656C731.943 24.0545 732.289 24.438 732.544 24.9162C732.805 25.3944 732.935 25.9815 732.935 26.6776V34H730.336V32.4943H730.25C730.089 32.8116 729.864 33.1004 729.576 33.3608C729.292 33.6212 728.939 33.8295 728.517 33.9858C728.101 34.1373 727.613 34.2131 727.054 34.2131ZM727.779 32.2599C728.276 32.2599 728.707 32.1629 729.071 31.9688C729.441 31.7699 729.725 31.5071 729.924 31.1804C730.127 30.8537 730.229 30.4915 730.229 30.0938V28.8438C730.144 28.91 730.009 28.9716 729.824 29.0284C729.644 29.0805 729.441 29.1278 729.213 29.1705C728.986 29.2131 728.761 29.2509 728.539 29.2841C728.316 29.3172 728.12 29.3456 727.949 29.3693C727.575 29.4214 727.244 29.5066 726.955 29.625C726.666 29.7386 726.439 29.8973 726.273 30.1009C726.107 30.3045 726.025 30.5649 726.025 30.8821C726.025 31.3366 726.188 31.6799 726.515 31.9119C726.846 32.1439 727.267 32.2599 727.779 32.2599ZM735.446 34V23.0909H738.038V24.9659H738.166C738.393 24.3362 738.77 23.8437 739.295 23.4886C739.825 23.1288 740.455 22.9489 741.184 22.9489C741.928 22.9489 742.555 23.1312 743.066 23.4957C743.583 23.8556 743.94 24.3456 744.139 24.9659H744.252C744.489 24.3551 744.896 23.8674 745.474 23.5028C746.052 23.1335 746.738 22.9489 747.534 22.9489C748.542 22.9489 749.364 23.2685 749.998 23.9077C750.633 24.5469 750.95 25.4678 750.95 26.6705V34H748.23V27.1321C748.23 26.4787 748.055 25.9981 747.704 25.6903C747.359 25.3778 746.932 25.2216 746.426 25.2216C745.824 25.2216 745.356 25.4086 745.02 25.7827C744.688 26.1567 744.522 26.642 744.522 27.2386V34H741.866V27.0398C741.866 26.4858 741.703 26.0455 741.376 25.7188C741.049 25.3873 740.621 25.2216 740.091 25.2216C739.735 25.2216 739.411 25.3116 739.118 25.4915C738.824 25.6714 738.59 25.9247 738.414 26.2514C738.244 26.5781 738.159 26.9593 738.159 27.3949V34H735.446ZM756.625 34.2131C755.929 34.2131 755.306 34.09 754.757 33.8438C754.208 33.5975 753.774 33.233 753.457 32.75C753.14 32.2623 752.981 31.661 752.981 30.946C752.981 30.3305 753.092 29.8215 753.315 29.419C753.542 29.0118 753.85 28.6875 754.238 28.446C754.631 28.1998 755.074 28.0152 755.566 27.892C756.059 27.7642 756.573 27.6719 757.108 27.6151C757.747 27.5488 758.263 27.4872 758.656 27.4304C759.049 27.3736 759.335 27.2884 759.515 27.1747C759.695 27.0563 759.785 26.8764 759.785 26.6349V26.5923C759.785 26.081 759.631 25.688 759.324 25.4134C759.02 25.134 758.585 24.9943 758.017 24.9943C757.411 24.9943 756.93 25.1269 756.575 25.392C756.225 25.6525 755.99 25.9673 755.872 26.3366L753.343 26.0312C753.519 25.3684 753.819 24.8073 754.245 24.348C754.676 23.8887 755.211 23.5407 755.85 23.304C756.494 23.0672 757.214 22.9489 758.01 22.9489C758.559 22.9489 759.099 23.0128 759.629 23.1406C760.164 23.2685 760.647 23.4768 761.078 23.7656C761.513 24.0545 761.859 24.438 762.115 24.9162C762.375 25.3944 762.505 25.9815 762.505 26.6776V34H759.906V32.4943H759.821C759.66 32.8116 759.435 33.1004 759.146 33.3608C758.862 33.6212 758.509 33.8295 758.088 33.9858C757.671 34.1373 757.183 34.2131 756.625 34.2131ZM757.349 32.2599C757.846 32.2599 758.277 32.1629 758.642 31.9688C759.011 31.7699 759.295 31.5071 759.494 31.1804C759.698 30.8537 759.799 30.4915 759.799 30.0938V28.8438C759.714 28.91 759.579 28.9716 759.395 29.0284C759.215 29.0805 759.011 29.1278 758.784 29.1705C758.556 29.2131 758.332 29.2509 758.109 29.2841C757.886 29.3172 757.69 29.3456 757.52 29.3693C757.145 29.4214 756.814 29.5066 756.525 29.625C756.236 29.7386 756.009 29.8973 755.843 30.1009C755.678 30.3045 755.595 30.5649 755.595 30.8821C755.595 31.3366 755.758 31.6799 756.085 31.9119C756.416 32.1439 756.838 32.2599 757.349 32.2599ZM769.972 34V19.4545H775.518C776.631 19.4545 777.569 19.6487 778.331 20.0369C779.098 20.4252 779.68 20.9721 780.078 21.6776C780.476 22.3783 780.675 23.1998 780.675 24.142C780.675 25.0843 780.473 25.8987 780.071 26.5852C779.669 27.2718 779.079 27.8021 778.303 28.1761C777.531 28.5455 776.586 28.7301 775.469 28.7301H771.598V26.4503H775.071C775.701 26.4503 776.219 26.3627 776.626 26.1875C777.034 26.0123 777.337 25.7543 777.536 25.4134C777.734 25.0677 777.834 24.6439 777.834 24.142C777.834 23.6354 777.734 23.2045 777.536 22.8494C777.337 22.4943 777.031 22.2244 776.619 22.0398C776.212 21.8504 775.691 21.7557 775.057 21.7557H772.749V34H769.972ZM777.599 27.402L781.2 34H778.118L774.581 27.402H777.599ZM787.623 34.2131C786.519 34.2131 785.57 33.9858 784.775 33.5312C783.979 33.072 783.366 32.4233 782.935 31.5852C782.504 30.7424 782.289 29.7481 782.289 28.6023C782.289 27.4801 782.504 26.4953 782.935 25.6477C783.366 24.8002 783.97 24.1397 784.746 23.6662C785.527 23.188 786.444 22.9489 787.495 22.9489C788.181 22.9489 788.828 23.0601 789.434 23.2827C790.04 23.5005 790.575 23.8366 791.039 24.2912C791.503 24.741 791.865 25.3139 792.125 26.0099C792.391 26.7012 792.523 27.5204 792.523 28.4673V29.2699H783.496V27.4943H789.938C789.933 27.0208 789.829 26.5994 789.625 26.2301C789.426 25.8561 789.147 25.5649 788.787 25.3565C788.427 25.1435 788.011 25.0369 787.537 25.0369C787.031 25.0369 786.586 25.1577 786.202 25.3991C785.819 25.6359 785.52 25.9508 785.307 26.3438C785.094 26.732 784.985 27.1605 784.98 27.6293V29.2273C784.98 29.8333 785.092 30.3542 785.314 30.7898C785.537 31.2206 785.847 31.5521 786.245 31.7841C786.647 32.0114 787.121 32.125 787.665 32.125C788.025 32.125 788.352 32.0753 788.645 31.9759C788.944 31.8717 789.199 31.7202 789.412 31.5213C789.63 31.3177 789.793 31.0668 789.902 30.7685L792.431 31.0099C792.284 31.6539 791.995 32.2173 791.564 32.7003C791.138 33.1785 790.591 33.5502 789.924 33.8153C789.256 34.0805 788.489 34.2131 787.623 34.2131ZM797.097 30.669V27.3949H797.516L801.294 23.0909H804.455L799.668 28.4957H799.078L797.097 30.669ZM794.625 34V19.4545H797.338V34H794.625ZM801.465 34L798.02 29.1065L799.846 27.1889L804.689 34H801.465ZM808.803 19.4545V34H806.09V19.4545H808.803ZM814.515 34.2131C813.819 34.2131 813.197 34.09 812.647 33.8438C812.098 33.5975 811.665 33.233 811.348 32.75C811.03 32.2623 810.872 31.661 810.872 30.946C810.872 30.3305 810.983 29.8215 811.206 29.419C811.433 29.0118 811.741 28.6875 812.129 28.446C812.522 28.1998 812.965 28.0152 813.457 27.892C813.949 27.7642 814.463 27.6719 814.998 27.6151C815.637 27.5488 816.154 27.4872 816.547 27.4304C816.94 27.3736 817.226 27.2884 817.406 27.1747C817.586 27.0563 817.676 26.8764 817.676 26.6349V26.5923C817.676 26.081 817.522 25.688 817.214 25.4134C816.911 25.134 816.475 24.9943 815.907 24.9943C815.301 24.9943 814.821 25.1269 814.466 25.392C814.115 25.6525 813.881 25.9673 813.762 26.3366L811.234 26.0312C811.409 25.3684 811.71 24.8073 812.136 24.348C812.567 23.8887 813.102 23.5407 813.741 23.304C814.385 23.0672 815.105 22.9489 815.9 22.9489C816.449 22.9489 816.989 23.0128 817.52 23.1406C818.055 23.2685 818.538 23.4768 818.968 23.7656C819.404 24.0545 819.75 24.438 820.005 24.9162C820.266 25.3944 820.396 25.9815 820.396 26.6776V34H817.797V32.4943H817.711C817.55 32.8116 817.325 33.1004 817.037 33.3608C816.752 33.6212 816.4 33.8295 815.978 33.9858C815.562 34.1373 815.074 34.2131 814.515 34.2131ZM815.24 32.2599C815.737 32.2599 816.168 32.1629 816.532 31.9688C816.902 31.7699 817.186 31.5071 817.385 31.1804C817.588 30.8537 817.69 30.4915 817.69 30.0938V28.8438C817.605 28.91 817.47 28.9716 817.285 29.0284C817.105 29.0805 816.902 29.1278 816.674 29.1705C816.447 29.2131 816.222 29.2509 816 29.2841C815.777 29.3172 815.581 29.3456 815.41 29.3693C815.036 29.4214 814.705 29.5066 814.416 29.625C814.127 29.7386 813.9 29.8973 813.734 30.1009C813.568 30.3045 813.485 30.5649 813.485 30.8821C813.485 31.3366 813.649 31.6799 813.975 31.9119C814.307 32.1439 814.728 32.2599 815.24 32.2599ZM822.907 34V23.0909H825.499V24.9659H825.627C825.854 24.3362 826.23 23.8437 826.756 23.4886C827.286 23.1288 827.916 22.9489 828.645 22.9489C829.389 22.9489 830.016 23.1312 830.527 23.4957C831.043 23.8556 831.401 24.3456 831.6 24.9659H831.713C831.95 24.3551 832.357 23.8674 832.935 23.5028C833.513 23.1335 834.199 22.9489 834.995 22.9489C836.003 22.9489 836.825 23.2685 837.459 23.9077C838.094 24.5469 838.411 25.4678 838.411 26.6705V34H835.691V27.1321C835.691 26.4787 835.516 25.9981 835.165 25.6903C834.819 25.3778 834.393 25.2216 833.887 25.2216C833.285 25.2216 832.817 25.4086 832.48 25.7827C832.149 26.1567 831.983 26.642 831.983 27.2386V34H829.327V27.0398C829.327 26.4858 829.164 26.0455 828.837 25.7188C828.51 25.3873 828.082 25.2216 827.551 25.2216C827.196 25.2216 826.872 25.3116 826.578 25.4915C826.285 25.6714 826.051 25.9247 825.875 26.2514C825.705 26.5781 825.62 26.9593 825.62 27.3949V34H822.907ZM844.086 34.2131C843.39 34.2131 842.767 34.09 842.218 33.8438C841.668 33.5975 841.235 33.233 840.918 32.75C840.601 32.2623 840.442 31.661 840.442 30.946C840.442 30.3305 840.553 29.8215 840.776 29.419C841.003 29.0118 841.311 28.6875 841.699 28.446C842.092 28.1998 842.535 28.0152 843.027 27.892C843.52 27.7642 844.033 27.6719 844.569 27.6151C845.208 27.5488 845.724 27.4872 846.117 27.4304C846.51 27.3736 846.796 27.2884 846.976 27.1747C847.156 27.0563 847.246 26.8764 847.246 26.6349V26.5923C847.246 26.081 847.092 25.688 846.784 25.4134C846.481 25.134 846.046 24.9943 845.478 24.9943C844.872 24.9943 844.391 25.1269 844.036 25.392C843.685 25.6525 843.451 25.9673 843.333 26.3366L840.804 26.0312C840.98 25.3684 841.28 24.8073 841.706 24.348C842.137 23.8887 842.672 23.5407 843.311 23.304C843.955 23.0672 844.675 22.9489 845.471 22.9489C846.02 22.9489 846.56 23.0128 847.09 23.1406C847.625 23.2685 848.108 23.4768 848.539 23.7656C848.974 24.0545 849.32 24.438 849.576 24.9162C849.836 25.3944 849.966 25.9815 849.966 26.6776V34H847.367V32.4943H847.282C847.121 32.8116 846.896 33.1004 846.607 33.3608C846.323 33.6212 845.97 33.8295 845.549 33.9858C845.132 34.1373 844.644 34.2131 844.086 34.2131ZM844.81 32.2599C845.307 32.2599 845.738 32.1629 846.103 31.9688C846.472 31.7699 846.756 31.5071 846.955 31.1804C847.158 30.8537 847.26 30.4915 847.26 30.0938V28.8438C847.175 28.91 847.04 28.9716 846.855 29.0284C846.676 29.0805 846.472 29.1278 846.245 29.1705C846.017 29.2131 845.792 29.2509 845.57 29.2841C845.347 29.3172 845.151 29.3456 844.98 29.3693C844.606 29.4214 844.275 29.5066 843.986 29.625C843.697 29.7386 843.47 29.8973 843.304 30.1009C843.139 30.3045 843.056 30.5649 843.056 30.8821C843.056 31.3366 843.219 31.6799 843.546 31.9119C843.877 32.1439 844.299 32.2599 844.81 32.2599Z" fill="#20235B"/>
</svg>
